<?xml version="1.0" encoding="UTF-8" standalone="no"?>
<svg
   xmlns:dc="http://purl.org/dc/elements/1.1/"
   xmlns:cc="http://creativecommons.org/ns#"
   xmlns:rdf="http://www.w3.org/1999/02/22-rdf-syntax-ns#"
   xmlns:svg="http://www.w3.org/2000/svg"
   xmlns="http://www.w3.org/2000/svg"
   viewBox="0 0 455.35999 648.1333"
   height="648.1333"
   width="455.35999"
   xml:space="preserve"
   id="svg2"
   version="1.1"><metadata
     id="metadata8"><rdf:RDF><cc:Work
         rdf:about=""><dc:format>image/svg+xml</dc:format><dc:type
           rdf:resource="http://purl.org/dc/dcmitype/StillImage" /></cc:Work></rdf:RDF></metadata><defs
     id="defs6"><clipPath
       id="clipPath20"
       clipPathUnits="userSpaceOnUse"><path
         id="path18"
         d="M 0,0 H 3415 V 4860.97 H 0 Z" /></clipPath></defs><g
     transform="matrix(1.3333333,0,0,-1.3333333,0,648.13333)"
     id="g10"><g
       transform="scale(0.1)"
       id="g12"><g
         id="g14"><g
           clip-path="url(#clipPath20)"
           id="g16"><path
             id="path22"
             style="fill:#1f6534;fill-opacity:1;fill-rule:nonzero;stroke:none"
             d="M 3047.39,176.969 H 367.836 c -110,0 -200,90 -200,200 V 4483.99 c 0,110 90,200 200,200 H 3047.39 c 110,0 200,-90 200,-200 V 376.969 c 0,-110 -90,-200 -200,-200" /><path
             id="path24"
             style="fill:none;stroke:#1f6534;stroke-width:55.20000076;stroke-linecap:butt;stroke-linejoin:miter;stroke-miterlimit:10;stroke-dasharray:none;stroke-opacity:1"
             d="M 3047.39,176.969 H 367.836 c -110,0 -200,90 -200,200 V 4483.99 c 0,110 90,200 200,200 H 3047.39 c 110,0 200,-90 200,-200 V 376.969 c 0,-110 -90,-200 -200,-200 z" /><path
             id="path26"
             style="fill:none;stroke:#1f6534;stroke-width:82.09880066;stroke-linecap:butt;stroke-linejoin:miter;stroke-miterlimit:10;stroke-dasharray:none;stroke-opacity:1"
             d="M 3074.18,41.0508 H 341.051 c -165,0 -300.0002,135.0002 -300.0002,300.0002 V 4519.92 c 0,165 135.0002,300 300.0002,300 H 3074.18 c 165,0 300,-135 300,-300 V 341.051 c 0,-165 -135,-300.0002 -300,-300.0002 z" /><path
             id="path28"
             style="fill:none;stroke:#ffffff;stroke-width:48.57600021;stroke-linecap:butt;stroke-linejoin:round;stroke-miterlimit:4;stroke-dasharray:none;stroke-opacity:1"
             d="m 2378.59,2748.8 57.37,177.52 h -380.44 l -80.84,-275.8 z m -1109.2,-1381.93 571.19,1712.46 h 898.23 l -103.99,-348.74 c -17.73,-60.5 -90.22,-101.42 -169.32,-140.57 L 1912.55,2451.44 1510.51,1265.92" /><path
             id="path30"
             style="fill:none;stroke:#ffffff;stroke-width:48.57600021;stroke-linecap:butt;stroke-linejoin:round;stroke-miterlimit:10;stroke-dasharray:none;stroke-opacity:1"
             d="m 782.168,1595.81 c 0,-70.76 -62.004,-128.13 -138.488,-128.13 -76.489,0 -138.492,57.37 -138.492,128.13 0,70.77 62.003,128.13 138.492,128.13 76.484,0 138.488,-57.36 138.488,-128.13 z" /><path
             id="path32"
             style="fill:none;stroke:#ffffff;stroke-width:48.57600021;stroke-linecap:butt;stroke-linejoin:round;stroke-miterlimit:10;stroke-dasharray:none;stroke-opacity:1"
             d="m 1773.53,1210.05 c 0,-70.77 -62,-128.14 -138.49,-128.14 -76.48,0 -138.48,57.37 -138.48,128.14 0,70.76 62,128.13 138.48,128.13 76.49,0 138.49,-57.37 138.49,-128.13 z" /><path
             id="path34"
             style="fill:none;stroke:#ffffff;stroke-width:48.57600021;stroke-linecap:butt;stroke-linejoin:round;stroke-miterlimit:4;stroke-dasharray:none;stroke-opacity:1"
             d="m 1912.55,2451.44 166.61,-319.14 v 0 l -305.63,-940.77" /><path
             id="path36"
             style="fill:none;stroke:#ffffff;stroke-width:48.57600021;stroke-linecap:butt;stroke-linejoin:round;stroke-miterlimit:4;stroke-dasharray:none;stroke-opacity:1"
             d="m 2738.81,3079.33 171.23,-330.99 -104,-348.74 c -17.73,-60.5 -90.22,-101.42 -169.31,-140.57 L 2079.16,2132.3" /><path
             id="path38"
             style="fill:none;stroke:#ffffff;stroke-width:48.57600021;stroke-linecap:butt;stroke-linejoin:round;stroke-miterlimit:4;stroke-dasharray:none;stroke-opacity:1"
             d="m 1821.33,3412.82 57.37,177.51 h -380.44 l -80.84,-275.8 z M 523.395,1659.32 1283.32,3743.35 h 903.52 L 2077.56,3394.6 c -17.73,-60.5 -127.29,-101.41 -206.38,-140.56 L 1355.29,3115.46 779.695,1571.61" /><path
             id="path40"
             style="fill:none;stroke:#ffffff;stroke-width:48.57600021;stroke-linecap:butt;stroke-linejoin:round;stroke-miterlimit:4;stroke-dasharray:none;stroke-opacity:1"
             d="m 1355.29,3115.46 157.69,-280.64 v 0 l -508.6,-1393.93" /><path
             id="path42"
             style="fill:none;stroke:#ffffff;stroke-width:48.57600021;stroke-linecap:butt;stroke-linejoin:round;stroke-miterlimit:10;stroke-dasharray:none;stroke-opacity:1"
             d="m 1276.37,1407.04 c 0,-70.76 -62,-128.13 -138.49,-128.13 -76.48,0 -138.485,57.37 -138.485,128.13 0,70.77 62.005,128.14 138.485,128.14 76.49,0 138.49,-57.37 138.49,-128.14 z" /><path
             id="path44"
             style="fill:none;stroke:#ffffff;stroke-width:48.57600021;stroke-linecap:butt;stroke-linejoin:round;stroke-miterlimit:4;stroke-dasharray:none;stroke-opacity:1"
             d="m 1788.37,2917.65 -275.39,-82.83" /><path
             id="path46"
             style="fill:none;stroke:#ffffff;stroke-width:48.57600021;stroke-linecap:butt;stroke-linejoin:round;stroke-miterlimit:4;stroke-dasharray:none;stroke-opacity:1"
             d="m 2186.84,3743.35 176.5,-330.99 -122.21,-336" /><path
             id="path48"
             style="fill:#ffffff;fill-opacity:1;fill-rule:nonzero;stroke:none"
             d="m 800.316,4379.1 h -93.851 v -104.94 h 95.019 c 37.895,0 58.297,17.5 58.297,53.05 0,35.57 -23.316,51.89 -59.465,51.89 z m -4.078,-184.21 h -89.773 v -144.58 h -81.617 v 408.07 h 178.386 c 76.95,0 140.493,-42.56 140.493,-129.41 0,-94.45 -62.961,-134.08 -147.489,-134.08" /><path
             id="path50"
             style="fill:#ffffff;fill-opacity:1;fill-rule:nonzero;stroke:none"
             d="m 1154.66,4178.55 c -13.99,8.76 -27.4,12.84 -55.97,12.84 -30.31,0 -46.63,-14 -46.63,-38.47 0,-21.58 12.24,-40.81 46.63,-40.81 26.24,0 47.23,13.4 55.97,27.98 z m 0,-128.24 v 20.4 c -14.58,-15.16 -40.22,-26.82 -68.79,-26.82 -57.13,0 -114.261,34.99 -114.261,109.03 0,67.62 54.791,101.43 124.171,101.43 27.98,0 46.05,-5.83 58.88,-12.25 v 15.15 c 0,21.58 -14.58,39.07 -43.72,39.07 -36.73,0 -55.97,-5.24 -83.95,-20.41 l -30.896,55.97 c 35.556,20.41 65.286,30.9 114.846,30.9 74.04,0 124.17,-38.48 124.17,-107.27 v -205.2 h -80.45" /><path
             id="path52"
             style="fill:#ffffff;fill-opacity:1;fill-rule:nonzero;stroke:none"
             d="m 1489.25,4262.51 c -12.82,11.65 -28.56,19.81 -46.63,19.81 -31.49,0 -51.89,-13.39 -51.89,-66.46 v -165.55 h -80.45 v 306.05 h 80.45 v -20.4 c 13.99,14.57 34.4,26.82 62.96,26.82 26.24,0 46.06,-10.49 56.55,-21.57 l -20.99,-78.7" /><path
             id="path54"
             style="fill:#ffffff;fill-opacity:1;fill-rule:nonzero;stroke:none"
             d="m 1713.72,4178.55 c -13.99,8.76 -27.39,12.84 -55.96,12.84 -30.32,0 -46.64,-14 -46.64,-38.47 0,-21.58 12.24,-40.81 46.64,-40.81 26.23,0 47.22,13.4 55.96,27.98 z m 0,-128.24 v 20.4 c -14.57,-15.16 -40.22,-26.82 -68.79,-26.82 -57.13,0 -114.26,34.99 -114.26,109.03 0,67.62 54.8,101.43 124.17,101.43 27.99,0 46.05,-5.83 58.88,-12.25 v 15.15 c 0,21.58 -14.57,39.07 -43.72,39.07 -36.73,0 -55.96,-5.24 -83.95,-20.41 l -30.89,55.97 c 35.56,20.41 65.29,30.9 114.84,30.9 74.04,0 124.17,-38.48 124.17,-107.27 v -205.2 h -80.45" /><path
             id="path56"
             style="fill:#ffffff;fill-opacity:1;fill-rule:nonzero;stroke:none"
             d="m 2037.24,4260.75 c -12.24,16.91 -30.89,26.23 -54.21,26.23 -30.9,0 -47.81,-26.81 -47.81,-78.11 0,-62.95 21,-89.18 52.47,-89.18 25.07,0 37.9,10.48 49.55,25.63 z m 0,-210.44 v 19.23 c -15.15,-13.4 -35.56,-25.65 -64.71,-25.65 -65.29,0 -118.92,48.97 -118.92,163.23 0,91.54 43.14,155.66 118.92,155.66 26.82,0 50.14,-10.49 64.71,-23.91 v 96.19 l 80.45,40.23 v -424.98 h -80.45" /><path
             id="path58"
             style="fill:#ffffff;fill-opacity:1;fill-rule:nonzero;stroke:none"
             d="m 2319.37,4285.24 c -38.48,0 -56.55,-34.97 -56.55,-82.19 0,-47.23 18.07,-81.62 56.55,-81.62 38.47,0 57.12,39.06 57.12,81.62 0,46.63 -18.65,82.19 -57.12,82.19 z m 0,-241.35 c -79.87,0 -138.17,65.3 -138.17,159.16 0,93.85 58.3,159.73 138.17,159.73 79.86,0 138.74,-65.88 138.74,-159.73 0,-93.86 -58.88,-159.16 -138.74,-159.16" /><path
             id="path60"
             style="fill:#ffffff;fill-opacity:1;fill-rule:nonzero;stroke:none"
             d="m 2694.78,4050.31 -30.9,50.72 c -11.07,18.06 -22.15,37.89 -27.98,49.55 -5.25,-11.66 -17.49,-32.07 -27.98,-49.55 l -30.9,-50.72 h -95.61 l 108.43,165.55 -92.1,140.5 h 95.6 l 14.58,-25.07 c 11.07,-18.07 22.15,-37.89 27.98,-49.55 5.83,11.66 17.49,31.48 27.98,49.55 l 14.57,25.07 h 95.61 l -92.11,-140.5 108.43,-165.55 h -95.6" /><path
             id="path62"
             style="fill:#ffffff;fill-opacity:1;fill-rule:nonzero;stroke:none"
             d="M 751.422,735.898 H 657.566 V 630.969 h 95.024 c 37.89,0 58.293,17.492 58.293,53.043 0,35.566 -23.313,51.886 -59.461,51.886 z M 747.344,551.691 H 657.566 V 407.109 H 575.949 V 815.18 H 754.34 c 76.949,0 140.492,-42.551 140.492,-129.41 0,-94.45 -62.961,-134.079 -147.488,-134.079" /><path
             id="path64"
             style="fill:#ffffff;fill-opacity:1;fill-rule:nonzero;stroke:none"
             d="m 1105.76,535.359 c -13.99,8.75 -27.39,12.832 -55.96,12.832 -30.32,0 -46.64,-14 -46.64,-38.472 0,-21.578 12.25,-40.809 46.64,-40.809 26.23,0 47.22,13.399 55.96,27.969 z m 0,-128.25 v 20.403 c -14.57,-15.16 -40.22,-26.821 -68.79,-26.821 -57.126,0 -114.259,34.989 -114.259,109.028 0,67.621 54.797,101.429 124.179,101.429 27.98,0 46.05,-5.839 58.87,-12.25 v 15.153 c 0,21.578 -14.57,39.07 -43.72,39.07 -36.73,0 -55.96,-5.242 -83.942,-20.41 l -30.903,55.957 c 35.563,20.41 65.295,30.91 114.845,30.91 74.04,0 124.17,-38.476 124.17,-107.269 v -205.2 h -80.45" /><path
             id="path66"
             style="fill:#ffffff;fill-opacity:1;fill-rule:nonzero;stroke:none"
             d="m 1440.36,619.309 c -12.83,11.66 -28.57,19.82 -46.64,19.82 -31.48,0 -51.89,-13.41 -51.89,-66.457 V 407.109 h -80.44 V 713.16 h 80.44 v -20.39 c 14,14.558 34.4,26.808 62.97,26.808 26.23,0 46.05,-10.5 56.54,-21.566 l -20.98,-78.703" /><path
             id="path68"
             style="fill:#ffffff;fill-opacity:1;fill-rule:nonzero;stroke:none"
             d="m 1688.67,407.109 -58.3,141.082 -39.06,-48.39 v -92.692 h -80.44 v 384.75 l 80.44,40.231 V 669.441 c 0,-18.66 -0.58,-50.132 -1.16,-65.293 8.16,12.243 22.15,31.481 32.65,44.891 l 49.55,64.121 h 95.02 l -78.7,-97.351 88.02,-208.7 h -88.02" /><path
             id="path70"
             style="fill:#ffffff;fill-opacity:1;fill-rule:nonzero;stroke:none"
             d="m 2113.56,407.109 h -67.04 l -30.31,120.09 c -5.83,23.903 -14,57.719 -16.33,72.289 -2.33,-14.57 -10.49,-48.386 -16.32,-72.289 l -30.32,-120.09 h -67.04 l -88.02,306.051 h 81.61 l 26.82,-113.09 c 5.25,-23.332 12.24,-55.379 14.57,-69.961 2.33,15.161 9.91,46.051 16.32,69.961 l 30.32,113.09 h 66.45 l 30.32,-113.09 c 6.41,-23.91 13.99,-54.8 16.32,-69.961 2.34,14.582 9.33,46.629 14.58,69.961 l 26.82,113.09 h 79.28 l -88.03,-306.051" /><path
             id="path72"
             style="fill:#ffffff;fill-opacity:1;fill-rule:nonzero;stroke:none"
             d="m 2406.14,535.359 c -13.99,8.75 -27.39,12.832 -55.96,12.832 -30.31,0 -46.64,-14 -46.64,-38.472 0,-21.578 12.25,-40.809 46.64,-40.809 26.23,0 47.22,13.399 55.96,27.969 z m 0,-128.25 v 20.403 c -14.57,-15.16 -40.22,-26.821 -68.79,-26.821 -57.12,0 -114.26,34.989 -114.26,109.028 0,67.621 54.8,101.429 124.18,101.429 27.98,0 46.05,-5.839 58.87,-12.25 v 15.153 c 0,21.578 -14.57,39.07 -43.72,39.07 -36.73,0 -55.96,-5.242 -83.94,-20.41 l -30.9,55.957 c 35.56,20.41 65.29,30.91 114.84,30.91 74.04,0 124.17,-38.476 124.17,-107.269 v -205.2 h -80.45" /><path
             id="path74"
             style="fill:#ffffff;fill-opacity:1;fill-rule:nonzero;stroke:none"
             d="m 2681.87,299.262 h -79.28 l 40.81,107.847 -118.92,306.051 h 88.6 l 50.14,-147.488 c 8.16,-23.32 16.32,-52.473 19.82,-67.031 3.5,15.16 11.66,43.129 19.82,67.031 l 50.13,147.488 h 86.29 L 2681.87,299.262" /></g></g></g></g></svg>